<svg xmlns="http://www.w3.org/2000/svg" viewBox="0 0 850.74 958.8"><defs><style>.cls-1{fill:#1a1a1a;}</style></defs><g id="Layer_2" data-name="Layer 2"><g id="Layer_2-2" data-name="Layer 2"><path class="cls-1" d="M504.92,192.06c-1.07-5.81-1.8-14.15-3-21.09-1.14-7.21-2.54-14.3-4.17-21-3.42-13.44-7.72-25.6-13.5-35.32a79.35,79.35,0,0,0-20-23.27c-2-1.29-4.32-3-5.93-4.2.3.54,1,.33.84.49,0,0-2.16-.65-6.48.45C444.47,89.51,432,95,420,102.16a308.08,308.08,0,0,0-36.72,25.77c-24.26,19.52-47.77,41.95-70,65.87A900.06,900.06,0,0,0,194.6,352.73C160.86,410.08,133,471.56,115.91,535.3l-5.92,24c-1.67,8-2.9,16.13-4.27,24.19-2.83,16.14-4.06,32.33-5.44,48.36-1.44,32.11-.88,63.79,3.47,93.67,4.22,29.63,11.11,58.25,21.19,80.71,2.22,5.86,5.13,10.58,7.52,14.92,1.18,1.55,2.46,4.25,3.29,5s1.94,2.44.47.63a3.7,3.7,0,0,0-.83-.51c-.07,0,.52.35.74.52a24,24,0,0,0,2,1.46,66.37,66.37,0,0,0,6.18,3.59,105.43,105.43,0,0,0,14.89,7.1,155.83,155.83,0,0,0,34.32,10c12.14,2.56,25.06,3.17,38.55,3.23,26.92-1,56.28-8.11,84.05-21.78L336.62,819c6.9-3.78,13.15-8.85,19.67-13.42,13.42-9.06,24.75-19.66,35.58-30.9a180.28,180.28,0,0,0,27-37.17,125.62,125.62,0,0,0,8.87-20.36,76.2,76.2,0,0,0,2.8-10.2,35.9,35.9,0,0,0,.82-4.87c.14-1.3.34-3.59.1-3.23A28.46,28.46,0,0,1,487.89,706a71.73,71.73,0,0,1-2.47,9.31l-2.59,7.47c-1.79,4.84-3.72,9.44-5.69,14A279.43,279.43,0,0,1,464,762.55a361.4,361.4,0,0,1-31.73,46.57,415.52,415.52,0,0,1-37.11,41.1c-12.54,13.26-26.56,25.45-40.62,38.06-29.3,23.69-62.83,46-102.86,59.18-39.82,13-85.86,16-129.41,3A197.29,197.29,0,0,1,89.89,938c-5.26-2.42-10.77-5.82-16.12-9-2.66-1.55-5.75-3.84-8.56-5.8-1.5-1.09-2.73-1.87-4.42-3.26L55.34,915c-8-7.35-11.69-12.76-16.23-18.7s-7-11-10.42-16.6A214.27,214.27,0,0,1,15,848C.71,806.52-1.53,766.41.79,727.91,6.71,650.85,31.7,582,57.07,516.06c5.92-16.73,13.39-32.68,19.85-49s13.49-32.39,20.83-48.29c14.55-31.84,29.76-63.34,46.22-94.22,33-61.74,69-122.12,112.45-178.75,21.84-28.2,45.38-55.56,72.89-80.65A393.49,393.49,0,0,1,374.5,29.51c16.84-10.85,35.34-21.18,60.56-26.93a99.66,99.66,0,0,1,44.25-.18c8.35,1.7,16.65,5.36,24.57,9.78,5.44,3.6,10,7,14.88,10.7a140.17,140.17,0,0,1,41.86,57.06,164.84,164.84,0,0,1,11.27,63.54c.13,10.29-1.35,20.32-2.87,30.17a179.57,179.57,0,0,1-8.34,29.81,28.41,28.41,0,0,1-54.55-4.79Z"/><path class="cls-1" d="M640.69,795.62c-22,76.12,58,143.07,131.95,114.64,43.88-16.86,81-37.33,77.91-57.57-7.37-47.81-123.08-112.05-180.93-94.4C655.16,762.71,646.12,776.87,640.69,795.62Z"/></g></g></svg>