<svg xmlns="http://www.w3.org/2000/svg" viewBox="0 0 6905.9 1235.53"><defs><style>.cls-1{fill:#1a1a1a;}</style></defs><g id="Layer_2" data-name="Layer 2"><g id="Layer_2-2" data-name="Layer 2"><path class="cls-1" d="M708.54,237.31c4.67-41.56,1.73-86.89-13.32-122.47a128.68,128.68,0,0,0-32.3-45.71l-10.81-8.64c-2.49-1.21-4.71-2.89-7.82-3.55a49.37,49.37,0,0,0-22.41-.87c-17.5,2.43-37,10.56-55.65,20.53-18.8,10-37.13,22.18-55,35.27-35.61,26.41-69.45,56.48-101.34,88.66C283.29,330,178.38,486.16,114.71,656.87c-31.06,85.37-48.67,175.59-48,263,.82,43.43,5.79,86.76,18.87,124.85,2.81,9.73,6.81,18.55,10.71,27,4,7.73,9.21,16.26,12.39,19,3.19,3.67,11.81,10.1,19.59,14.61a182.68,182.68,0,0,0,25.82,13c35.93,16,76.82,21.47,118.16,19.08,41.42-3.39,83.51-16,122.93-35.81l28.93-16.4c9.74-5.37,18.44-12.54,27.76-18.74,18.88-12.34,35.51-27,51.38-42.51a288.34,288.34,0,0,0,41.21-51.46,190.91,190.91,0,0,0,15.33-28.65c4.13-9.47,8.13-20.71,9.33-28.75l.13-.84A18.07,18.07,0,0,1,605,919.58a19.64,19.64,0,0,1-.44,2.08c-4,14.52-8.59,24.89-14.13,36.39A352.47,352.47,0,0,1,572.3,990.1a415.65,415.65,0,0,1-44.8,57.09,484.67,484.67,0,0,1-52.64,49c-17.92,15.81-37.84,29.29-57.56,43.39-40.72,26.14-86,48.3-136.2,58.76-25.12,4.53-51.09,7.52-77.25,5.31-26.19-1.13-52.22-7.11-77.24-16.28a232.46,232.46,0,0,1-36.52-17.25c-12-7.19-23.06-13.61-35.78-26.7-13-13.88-18.87-26-25.45-38.76-5.68-12.56-10.79-25.09-14.26-37.63C-.16,1016.7-2.06,966.39,1.62,917.57c4-48.87,14.74-96,27.6-141.88,7.15-22.75,13.92-45.53,22.85-67.46,4.21-11.05,7.87-22.3,12.3-33.22L78.18,642.5c8.6-21.92,19-43,28.83-64.25s20.17-42.27,31.05-63q32.7-62.11,69.76-121.74C257.22,314.09,312.31,237.9,376,168.18c31.89-34.77,65.63-68.26,103.55-98,19.06-14.78,39-28.84,60.67-41.16C562,16.87,585.6,6.13,613.93,1.58a103.56,103.56,0,0,1,46.21,2.3c8.24,2.11,16,6.27,23.53,10.91,5.73,4.36,10.79,8.73,16.14,13.17a166.37,166.37,0,0,1,44.88,67.82c9,25.28,12.25,51.43,11.61,76.66-.82,25.52-4.59,49.38-12.95,74.15a18,18,0,0,1-35-7.76Z"/><path class="cls-1" d="M1204.36,364.12c-1.66-12.32-4.2-27.43-17.85-41.29-6.59-6.9-16.34-11.2-25.25-12.77a72.87,72.87,0,0,0-12.75-.65c-3.73.48-7.7.89-11.2,1.71-14,3.3-24.85,9.19-35,15.35s-19.14,13.15-27.89,20.28c-34.09,29.06-61.91,62.29-87.22,97C897.58,569.61,835.94,714.13,813.54,870.06c-26.91,16.05-54.56,31-82.57,45l-.24.13A6.73,6.73,0,0,0,736,927.5q37.93-13.38,74.09-30.46-1.41,12.39-2.49,24.86a445.62,445.62,0,0,0,11.28,131.39c2.5,10.66,5.3,21.29,8.22,31.58,2.77,10.05,6.94,23.2,12,34.14,10.12,22.69,25.82,44.26,47.51,60.24,21.56,16.27,49.46,23.82,74.54,22.68l9.47-.17,9.06-1.48c6-1.15,12.13-1.81,17.78-3.48,11.08-3.88,22.57-6.92,32.46-12.37,41.06-19.45,74.26-47.58,104.17-77.73a6.79,6.79,0,0,0-8.24-10.64l-.18.11c-36,21-72.43,40.79-109.52,51.49-37.19,11.34-73.42,8.28-94.91-12.18C910,1125.42,901.91,1111,896,1095.27a168.91,168.91,0,0,1-6.89-25.55c-2.09-10-3.93-19.74-5.53-29.57A1001.27,1001.27,0,0,1,871,922.44c-.89-18.76-1.06-37.7-.24-56.66a701,701,0,0,0,88.44-58.92c8.55-6.52,16.85-13.38,24.84-20.7a288.67,288.67,0,0,0,23.61-22.45c15.31-15.31,29.19-33.55,41.56-49.63,25.51-33.08,50.81-66.71,74.59-102.16s45.28-73.47,60.68-115a373.15,373.15,0,0,0,16.74-64.5c1.48-11,3.06-22.14,3.49-33.26S1205.92,377.15,1204.36,364.12Zm-42.44,32.78c-.3,9.75-1.63,19.41-2.82,29.06a330.51,330.51,0,0,1-14.26,56.8c-13.4,37.06-32.92,72.44-55.33,106.67-22.16,34.39-46.91,67.77-71.1,101.88-12.53,17.42-23.53,33-37.28,47.7-6.62,7.47-13.36,14.9-20.77,21.78-7.05,7.21-14.5,14.06-22.26,20.64a807.94,807.94,0,0,1-64.81,50.11q1.58-14.43,4.08-28.8c6.77-39.78,18.32-78.81,32.38-117a910.82,910.82,0,0,1,113.37-216c23.61-32.89,49.89-64.22,79.37-89.57,14.44-12.14,31.21-23.61,44.58-26.86l4.27-.73c1,.14,2.15,0,2.86.11,1.24.47,1.64.26,2.25,1.08,1.62.88,4.56,7.51,5.25,15.6C1162.79,377.14,1162.29,387,1161.92,396.9Z"/><path class="cls-1" d="M3790.86,454.22h0a54.29,54.29,0,0,0-10.53,1.29l-7.24,1.78c-4.39,1.36-8.88,2.73-12.91,4.34-8.32,3.1-16.2,6.52-23.8,10.23-15.41,7.25-29.62,15.74-43.93,24.16-28.35,17.05-54.86,36.16-81.16,55.45s-51.56,39.73-76.4,60.51c-12.29,10.21-25.16,20.65-37.73,32.26-12.44,11.4-24.27,23.42-35.74,35.71a776.42,776.42,0,0,0-62.61,76.37c8.49-112,13.76-224.1,13.64-336.64v-1a18.5,18.5,0,0,0-22.06-18c-78.31,15.38-147,56.84-208.32,103.07-61.33,47-115.06,102.19-165.19,159.66q-47.52,54.71-90,113.25c10.13-48,20.66-95.7,32.4-142.92,17.9-71.48,38.12-143.21,72-205.85l.22-.41a18,18,0,0,0-30.62-18.94c-22.77,32.46-39.65,67.55-54.37,103s-27.53,71.44-38.74,107.73q-5.7,18.21-11,36.49h0q-1.64,2.35-3.3,4.68c-9.9,14.05-20.45,27.92-31.34,41.56-21.67,27.4-44.81,53.86-68.59,79.72-47.5,51.83-96.85,102.19-148.61,149.94-51.6,47.89-104.28,94.71-159.5,138.12-27.67,21.6-55.74,42.65-84.9,61.81-28.86,19.18-59.26,37.38-89.52,50.45-30,12.75-62.06,16.47-82.52,2.22-21.16-13.68-34-43.76-41-74.9-6.87-31.56-10-65.25-10.22-99.09-.37-16.93-.1-34,.74-50.93.43-8.49,1-17,1.7-25.41a206.71,206.71,0,0,1,2.94-23.13c3.61-18.62,8.47-37.82,13.95-57.1,30.2-7,58.24-18.44,85.21-31.71a632.76,632.76,0,0,0,93-56.87c29.56-21,57.08-44.29,83.9-68.46L2478.54,678l9.89-9.34c4-3.75,6.65-7.06,9.82-10.54,12.07-13.76,23.48-27.85,34.42-42.41,21.82-29.14,42-59.8,58.26-93.62,15.67-33.71,29.37-71.31,25.69-114.33-2-21.24-10-43.41-23.77-61s-31.42-30.56-49.5-39.66c-19.14-10.46-44.83-14.77-67.24-10.46-22.56,4.23-41.76,14.32-58.25,25.8-32.79,23.46-57.31,52.35-79.47,81.9-22,29.73-41.07,60.79-58.75,92.4-35.45,63.2-64,129.22-90,196q-19.36,50.19-36,101.47c-3.14,9.94-6.24,19.82-9.23,29.77-7-.26-13.86-1-20.72-1.87a166.15,166.15,0,0,1-46.13-13.68c-29.44-13.27-54.89-35.26-75.78-61.26-20.92-26.21-37-56.41-50.26-88.33a770.91,770.91,0,0,1-33.67-98.39,836.81,836.81,0,0,1-20.08-102.26c-2.19-17.23-4-34.51-5.17-51.78-.54-8.66-1.3-17.26-1.2-25.91a76.13,76.13,0,0,1,5.7-25.35,19.46,19.46,0,0,0-25.24-25.46l-16.4,6.56c-12.31,4.93-24.7,9.94-34.53,17.38-10,7.29-17.17,17-25.28,25.67-15.65,17.87-30.54,36-45.06,54.27-29,36.58-56.53,73.84-83.39,111.49q-40.38,56.88-79,114.8,4.85-17.05,9.6-34.24c11.35-45.79,20.83-92.9,17.71-143.71-2-25.09-7.23-52.64-25.4-77.24A89,89,0,0,0,1554,376.47c-14.19-6.14-28.87-7.94-42.77-7.86-16.67.57-29.79,5.46-41.78,10.72a243.83,243.83,0,0,0-32.92,18.4c-20.35,13.47-38.84,28.32-56.53,43.82-35.13,31.37-67.18,64.5-98,99.8a18,18,0,0,0,26.63,24.25l.3-.31c30.7-32.39,63.71-63.88,98.07-92.11,17.18-14.1,34.78-27.57,52.93-38.87,17.6-11,38.18-20.61,51.57-20.55,18.32.3,32.25,6.46,41.09,19,9.1,12.7,13.61,32,14.42,52.18,1.62,40.91-7.68,84.76-19.53,127.17-23.51,78.07-49.74,157.49-76.28,235.85-32.6,55.46-64,111.75-93.17,169.75-20.5,42.17-27.67,47.7-42.38,96.29-3.37,12.7-7,24.87-7.31,43.1l.3,7.41c.39,3,.9,6,1.52,9a53.11,53.11,0,0,0,3.51,10.18c2.21,4.07,4.69,10.57,15.41,17.69a37.09,37.09,0,0,0,19.61,5.42,37.5,37.5,0,0,0,15-3.25,44.75,44.75,0,0,0,12.65-8.44,73.94,73.94,0,0,0,10-11.62c8.93-13,13.93-23.76,19.35-35,5.2-11.06,9.89-22,14.39-32.86,28.51-70.57,39.37-105.22,62.43-176.13,24.4-41.71,49.81-83,75.69-123.89,49-76.44,98.61-152.6,151.14-226.4,26.24-36.89,53.07-73.3,80.88-108.49,13.9-17.57,28.07-34.83,42.54-51.41,2.1-2.52,4.31-4.95,6.52-7.36,1.8,13.77,4,27.47,6.36,41.12q9.26,53.12,23.64,105.12a798.61,798.61,0,0,0,34.94,102.06c14.09,33.12,30.17,66.59,53,96.08,22.64,29.38,51.43,55.8,86.33,72.24a199.72,199.72,0,0,0,54.87,17.31c5.45.84,10.92,1.54,16.38,2.05-3.61,13.66-6.93,27.6-9.81,42a218.55,218.55,0,0,0-3.67,29.41q-.95,13.8-1.38,27.53-.9,27.5.13,55.06c2.08,36.73,5.88,73.87,17,110.76,5.54,18.41,12.67,36.85,23.28,54.53,10.47,17.52,25.31,34.71,45.42,45.89s43.94,14.2,64.53,11.33c20.8-2.81,39.42-9.84,56.43-18.34,65.74-35.52,120.67-80,176.1-124.94,54.83-45.32,108.26-92.06,159.78-140.86s102.35-98.26,151.32-149.77c20.83-22.06,41.43-44.35,61.65-67.15-9.06,34.83-17.6,69.67-26.12,104.41-7.09,29.63-14.09,59.36-21.35,88.82-22.62,38-43.89,76.84-63.51,117-8.43,17.39-16.53,35-24,53.6a308.66,308.66,0,0,0-10.39,30c-1.49,5.89-3.17,11.1-3.82,21.53a47.87,47.87,0,0,0,.8,11.42,38.48,38.48,0,0,0,1.23,4.78,35.28,35.28,0,0,0,2.55,6.11,37.4,37.4,0,0,0,14.56,15.21,36.15,36.15,0,0,0,11.32,4.18,36.71,36.71,0,0,0,7.81.67l4.42-.31a44.1,44.1,0,0,0,8.56-1.44c22.9-6.47,32.66-19.66,40.8-29.47a174.17,174.17,0,0,0,17.7-29.94c9.2-19.35,15.78-38.11,21.81-56.79,12.44-39.54,22.19-78.86,31-118a2126.5,2126.5,0,0,1,173.34-253.89c46.06-57.29,96.37-111,151.52-158.41,47.66-40.93,100.34-76.69,158-98.27-19.79,117.09-35.92,234.52-52.64,351.45-6.31,46.09-13,92.15-20.12,137.79a835.41,835.41,0,0,0-33.4,93.29c-4.66,16.81-9,33.12-11.55,53.58a115.25,115.25,0,0,0-.8,19c.4,4.14.19,9.08,4.1,19.6.71,1.7,1.51,3.38,2.39,5a38.51,38.51,0,0,0,3.73,5.8c4.2,5.13,7.76,9.27,17.14,13.86a44.39,44.39,0,0,0,24.84,3.8,48.15,48.15,0,0,0,15-4.66,60.09,60.09,0,0,0,7.21-4.48,52.26,52.26,0,0,0,4.4-3.62,57.56,57.56,0,0,0,7.75-8.61,58.8,58.8,0,0,0,4.49-7.1,57.42,57.42,0,0,0,2.71-5.43,134.1,134.1,0,0,0,6.11-16.31c5.65-18.77,8.76-34.93,12-51.5s5.68-32.6,8.15-48.74q3-19.49,5.47-38.91c34-82.82,80.35-162.11,136.5-231a734.2,734.2,0,0,1,63.2-66.72c22.67-22.13,46.07-43.27,69.35-64.5,23.45-21,47.42-41.3,71.9-60.41,10-7.61,20.17-15.11,30.42-22.06C3728.57,560,3711.45,607.64,3696.1,656c-20.1,65.06-37.44,131.11-50.66,198.52-6.65,33.72-11.79,67.86-15.74,102.5-3.75,34.8-6.54,69.67-3,107.71a167.64,167.64,0,0,0,5.64,30.09c2.52,10.42,10.44,24.09,16,30.8,6.52,8.21,14,16.34,23.9,23.22a70.1,70.1,0,0,0,35.68,12.38,68.65,68.65,0,0,0,35-7.65,101.77,101.77,0,0,0,25.06-17.9,163.82,163.82,0,0,0,32.63-45.14,11.79,11.79,0,0,0-18.86-13.64l-.71.7c-10.91,10.85-23.48,21.62-35.9,29s-25.28,11.19-32.65,8.7c-7.11-1.73-14.36-8.63-21.42-19.8-4.07-7.12-4.55-8.37-5.83-14.55a118.74,118.74,0,0,1-1.67-20c-.16-29.53,5.32-62.18,11.32-94.13,6.19-32.16,14.2-64.33,22-96.61,16-64.53,33.19-129.19,50-194.11,16.47-65,32-130.53,41-198.19l.66-4.92a17.78,17.78,0,0,0,.09-3.27A16.72,16.72,0,0,0,3790.86,454.22ZM2209.18,811.94c10.5-33.08,22.07-66,34.48-98.49A1705.44,1705.44,0,0,1,2329,523.67c16.22-30.38,33.7-60,53.22-87.49,19.49-27.31,41.32-53.11,65.87-71.3,12.24-8.94,25.11-15.47,37.4-18,12.38-2.2,23.43-1.09,35.66,4.94,27.51,12.88,45.31,33.27,48.39,61.12,3.46,27.95-5.82,60.26-19.26,90.29-13.65,30.3-31.61,59.55-51.67,87.31-10,13.85-20.66,27.43-31.69,40.43-2.73,3.09-5.61,6.74-8.09,9l-9.24,9-18.48,18c-25.28,23.55-51.42,46.44-79.16,66.86a596.43,596.43,0,0,1-86.75,55.09,398.31,398.31,0,0,1-56.41,24.23C2208.92,812.75,2209.06,812.34,2209.18,811.94ZM1351.36,1146.7a2.29,2.29,0,0,1,.25-.3l.09-.07C1351.52,1146.52,1351.41,1146.66,1351.36,1146.7ZM3337.84,1095v0S3337.84,1095,3337.84,1095Z"/><path class="cls-1" d="M6072.1,1004.32a9,9,0,0,0-12.45,2.62l-.56.86c-11.38,17.47-28.83,33.06-46.07,47.22a427.7,427.7,0,0,1-55.56,37.85c-19.37,10.73-39.24,20.45-59.43,26.2-20,6.26-40.17,9-57.54,6.21s-31.34-10.41-42.59-23.61c-5.32-6.31-11.17-15.29-13.87-21.57-3.21-7.41-5.58-16.76-7.16-26.66-5.87-40.4-2.55-86.69,2.51-131.75,10.15-91,29.57-182.62,49.76-273.9,10.09-45.73,21.38-91.24,32.59-137.07,5.53-23,11.08-45.89,15.93-69.75,1.21-6,2.35-12.06,3.36-18.44.86-6.89,2.17-12.07,1.71-23.52a40,40,0,0,0-1-6.43,34.11,34.11,0,0,0-1.91-5.47,27.31,27.31,0,0,0-7.06-9.48c-3-3.24-11.68-6.87-16.43-6.62a27.4,27.4,0,0,0-12.22,2.19,33.85,33.85,0,0,0-5.39,3l-3.06,2.36c-3.16,2.66-4.12,4.45-5.94,6.69-1.43,1.89-3.61,5-4.2,6l-9.62,15.53-144,242.83q-36.21,60.36-73.33,119.94c-24.64,39.77-50,78-77.69,115.35-27.37,37.26-56,73.58-86.6,107.09a579.74,579.74,0,0,1-47.56,46.89c-16.16,13.94-34.09,26.84-48.83,32.11-7.29,2.7-12,2.11-11.87,1.69a6,6,0,0,1-1.35-1.23,19.82,19.82,0,0,1-1.79-2.38l-1-1.77.06.07-.06-.19c-1.4-3.23-3.14-14.53-3.63-24.43-.62-10.4-.69-21.48-.53-32.66.89-45,5.06-91.64,9.32-138.09,8.16-93.2,18-187,22.08-282.11a822.75,822.75,0,0,0-6.15-144.55c-3.75-24.45-7.34-49.62-24.95-74.55-4.54-6.11-10.77-12.54-19.71-16.43a37.47,37.47,0,0,0-26.41-.64c-7.5,2.17-13.83,6.16-18.92,9.31l-15.16,9.27c-40.42,24.6-80,52.3-116.21,84.53-36.4,32.05-68.09,67.81-100.35,102.38l-95,104.52c-1.31,1.45-2.64,2.89-4,4.35.43-3.66.84-7.34,1.26-11,10.45-93.82,18.83-187.72,23.08-282.28l.13-3a22.84,22.84,0,0,0-33.54-21.09h0q-160.74,79.28-319.34,162.58c-26.45,14.07-52.88,28.06-79.12,43-21,11.86-41.59,23.26-62.66,33.68a404.86,404.86,0,0,0-14.37-52.73c-11-30.79-26.82-61.39-50-87.1-22.94-25.55-53.11-46-86.53-56-67.6-20.29-139.52-.1-190.71,42.06a207.52,207.52,0,0,0-18.4,17.08c-6.16,6.53-12.56,14.61-16.88,23.06-9.14,17-13,35.7-13.32,53.6a158,158,0,0,0,13.68,65.07c-38,45.88-68.57,96.57-93.34,150.91-25.09,55.69-43.26,115.89-47.22,178.91-2.25,31.64-.18,63.31,3.71,93.92,4.13,31,10.43,62.4,24,93.8,7,15.57,15.65,31.39,28.88,45.54a115.15,115.15,0,0,0,50,31.92,127.14,127.14,0,0,0,28.64,5.63,131.39,131.39,0,0,0,29-1c18.35-2.45,34.82-7.72,50.51-13.93,62.05-25.85,112.1-66.85,155.1-113.21,42.86-46.72,78.09-99.06,106.27-155.84,28.14-58.5,43.58-121.08,48.75-184.36a550.58,550.58,0,0,0-1-93c26.48-12.49,52.2-26.68,77.08-40.7,25.58-14.52,51.83-28.41,78-42.31,91-47.77,183.73-92.9,276.51-137.59C4861,549.14,4836,685.41,4810.32,820.69a743.26,743.26,0,0,0-42.72,89.81c-18.35,46-33.42,93.11-41.69,144.24a345,345,0,0,0-4.33,40.64,158.88,158.88,0,0,0,.8,25,81.55,81.55,0,0,0,4.61,19.5,61.56,61.56,0,0,0,3.58,7.81,58,58,0,0,0,7.21,10.38,51.83,51.83,0,0,0,6.81,6.47,47.47,47.47,0,0,0,9.39,6,52,52,0,0,0,25.07,5.43,54.57,54.57,0,0,0,29.36-10.08,55.83,55.83,0,0,0,6.48-5.17c1.57-1.44,3.53-3.3,4.48-4.42a87.64,87.64,0,0,0,11.25-15.08c5.86-10.15,8.25-16.87,11-23.93,4.9-13.46,8.39-25.62,11.71-37.79,12.52-48.19,22.2-94.54,30.22-141.54q11.07-63.09,20.08-126.14c9.51-18.06,19.66-35.79,30.73-52.92,11.89-18.82,25.31-36.41,39.63-55.82l83.76-113.68c27.94-37.58,56.14-74.64,87.76-107.62,31.32-33.38,68-61.51,106.1-88.45,9.59-6.4,19.54-14.81,26.82-16.44,7.85-1.35,9.26,1.55,12.6,9.64,2.67,8,3.57,18.69,4.3,29.22s1.29,21.69,1.25,32.88c-.35,45-6.32,91.14-9.87,137.33-7.85,92.62-19,185.78-27.71,279.87-4,47.21-7.92,94.35-8.58,143.39-.08,12.33.05,24.77.92,37.83,1.29,13.45,1.59,25.92,8.48,44.79a69.55,69.55,0,0,0,3.73,7.87l3.51,5.76a85.43,85.43,0,0,0,9.07,11.47,69.24,69.24,0,0,0,27.67,18.16c22.63,7.62,42.61,2.5,57-3,29.23-12,48.85-28.86,68-45.67a640.44,640.44,0,0,0,51.56-53.33c31.92-36.77,60.6-75.18,87.94-114.37,54.76-78.62,101.74-161.13,149.32-242.12l84.94-145.82-27,104c-23.55,91.54-45.57,183.81-58.13,279.56-5.21,48.14-9.77,96.7-.89,149.45,2.45,13.23,5.88,26.86,12.25,40.94a105.43,105.43,0,0,0,11.63,19.69c3.85,6,8.83,11.52,13.74,17,20.07,22,50.57,37.15,80.1,39.11,29.57,2.15,56.68-4.56,80.76-14.3,24.16-10,45.74-23.23,65.77-38,19.75-15.16,38.2-31.58,54.42-50.17s31.39-38.16,40.38-63.26A9,9,0,0,0,6072.1,1004.32ZM4107.9,530.75c.35-11.85,3-23,8.16-32.28,2.54-4.84,5.6-8.46,9.62-12.74a155.66,155.66,0,0,1,14.48-13.16c40.37-33.14,98-46.56,144.91-29.42a130.23,130.23,0,0,1,59.14,43.6c15.52,19.82,26.16,43.94,33.42,69.72a346.75,346.75,0,0,1,11.07,60.84c-37.47,13.61-76,22.56-115.38,24.59a457.45,457.45,0,0,1-85-3.29c-22.33-2.78-43.25-17.76-57.75-38.15S4107.3,554.56,4107.9,530.75Zm278.85,189.51c-6.37,55.22-20.19,110-42.93,159.44-23.58,50.54-54.43,98.86-91.22,140.83-36.85,41.54-80.14,79.32-127.88,100.94-11.78,5.23-23.84,9.42-35,11.28a71.37,71.37,0,0,1-15.57,1.26,67.74,67.74,0,0,1-15.23-2.37,55.37,55.37,0,0,1-25.29-14.39c-7.68-7.24-14.26-17.59-20-28.8-11.36-22.84-18.7-50.06-23.72-77.87-5.06-28.25-8.86-56.17-8.52-84.14,1.17-108.66,43.45-218.07,103.78-312.65q4.08,6.86,8.77,13.31c20.05,27.6,51.2,51,88.72,55.5a499.78,499.78,0,0,0,93.42,2.63c39.18-2.58,77.65-11,114.46-23.32A529.39,529.39,0,0,1,4386.75,720.26Zm429.47,387.83c0-.08,0-.17,0-.27C4816.5,1109,4816.25,1108.67,4816.22,1108.09Z"/><path class="cls-1" d="M6905.83,1144.54a9.29,9.29,0,0,0-10.32-8.09l-.48.06c-50.41,6.11-102,8.13-152.07,4.39-47.36-1.81-85.13-27.35-100.51-63.11-8.3-17.33-11.58-36.72-11.59-56.38-.4-4.88.49-10,.56-14.94.39-5.28,1.29-11.31,2.05-17.07,1.48-11.72,3.5-23.72,5.8-35.81,9.67-48.42,22.39-98.19,35.11-148.18C6686.54,755.18,6699.2,704.55,6710,653c10.49-51.69,20.45-104,20.54-160-1-27.84-1.77-58-19.52-88.36-8.73-14.92-24.1-28.3-40.92-34.32-16.78-6.65-33.33-7.08-48.38-6-15.69,1.37-27.92,4.22-41,6.64-13,2.61-26,5.49-39,8.5-26,6.17-51.95,13.7-77.39,23.84-25.33,10.31-50.27,23-73.28,39a325.45,325.45,0,0,0-61.61,56.46c-36.32,42-62.73,89-87.47,135.27l-18.13,34.91c-6.09,11.8-12.11,24.51-17.42,36.9a768.16,768.16,0,0,0-27.92,76.08c-15.73,51.5-27.89,104.11-32.58,159-2.29,27.45-3.21,55.42-.11,84.71a239.35,239.35,0,0,0,9.42,45.3c5.14,15.53,12.42,32.27,26.67,48,13.76,15.89,37.64,28,59.31,29,20.88.84,36.8-2.87,51.92-7.5,29.25-10,53.29-24.71,75.72-40.4s43.17-32.66,64-49.07c20.67-16.59,41.43-32.72,61.39-49.75q32.31-27.54,63.95-55.35c-4.78,24.23-9.13,47.83-8.12,78.08,2,31.85,11.19,64.57,30.4,91.32,37,55.47,107.33,78.55,163,70.76,53.46-5.21,105.4-14.8,156-31.45A9.28,9.28,0,0,0,6905.83,1144.54Zm-437.72-177c-41.33,30-85,57.54-130.8,76.58a461.79,461.79,0,0,1-65.66,23.3c-9.74,2.44-19.58,3.52-24.62,3.34-4.3-.45-5.23-.81-8.81-4.15-7.36-7-14.69-28.39-17.11-50.13-2.94-22.19-3.33-46.24-2-70.42a797.5,797.5,0,0,1,22.69-146.31,701.62,701.62,0,0,1,21.72-71.06c4.27-11.66,8.74-22.65,13.93-34.16l15.91-34.93c21.61-46.12,44.33-91.28,74.11-129.33a272.08,272.08,0,0,1,114-84.78c22.61-9.24,46.45-16.42,70.79-22.4,12.16-3.07,24.53-5.5,37-7.78,12.39-2.13,25.56-4.69,35.7-5.28,10.64-.6,20.7.27,28,3.53s12.45,8.1,16.57,15.61c8.26,15.1,10.33,39.14,8.6,62.49-3.58,47.69-16.44,97.14-30.33,145.93-14.15,49-30.32,97.85-46.28,147.29-10.1,33-20.33,66.07-29.26,100.13A1262.61,1262.61,0,0,1,6468.11,967.49Z"/><path class="cls-1" d="M5834,172.79c-13.71,47.41,36.11,89.11,82.19,71.4,27.33-10.5,50.48-23.25,48.53-35.86-4.6-29.78-76.67-69.79-112.7-58.79C5843,152.29,5837.4,161.11,5834,172.79Z"/></g></g></svg>